<svg data-v-423bf9ae="" xmlns="http://www.w3.org/2000/svg" viewBox="0 0 236.52941080223178 60" class="font"><!----><!----><defs data-v-423bf9ae=""><linearGradient data-v-423bf9ae="" gradientTransform="rotate(25)" id="88b0ef95-f3e0-47d7-8c96-d4e2309140fb" x1="0%" y1="0%" x2="100%" y2="0%"><stop data-v-423bf9ae="" offset="0%" style="stop-color: rgb(44, 104, 148); stop-opacity: 1;"></stop><stop data-v-423bf9ae="" offset="100%" style="stop-color: rgb(43, 157, 239); stop-opacity: 1;"></stop></linearGradient></defs><g data-v-423bf9ae="" id="8ad9add3-ee80-4fff-90f9-e0980cbef372" fill="url(#88b0ef95-f3e0-47d7-8c96-d4e2309140fb)" transform="matrix(5.88235305117351,0,0,5.88235305117351,-3.29411502204826,-20.647059868776267)"><path d="M5.39 13.71L5.39 13.71Q3.99 13.71 2.89 13.08L2.89 13.08L2.89 13.08Q1.79 12.45 1.18 11.29L1.18 11.29L1.18 11.29Q0.56 10.14 0.56 8.61L0.56 8.61L0.56 8.61Q0.56 7.08 1.18 5.93L1.18 5.93L1.18 5.93Q1.79 4.77 2.89 4.14L2.89 4.14L2.89 4.14Q3.99 3.51 5.39 3.51L5.39 3.51L5.39 3.51Q6.79 3.51 7.89 4.14L7.89 4.14L7.89 4.14Q8.99 4.77 9.60 5.93L9.60 5.93L9.60 5.93Q10.22 7.08 10.22 8.61L10.22 8.61L10.22 8.61Q10.22 10.14 9.60 11.29L9.60 11.29L9.60 11.29Q8.99 12.45 7.89 13.08L7.89 13.08L7.89 13.08Q6.79 13.71 5.39 13.71L5.39 13.71ZM5.39 12.42L5.39 12.42Q6.48 12.42 7.25 11.92L7.25 11.92L7.25 11.92Q8.02 11.42 8.41 10.56L8.41 10.56L8.41 10.56Q8.79 9.70 8.79 8.61L8.79 8.61L8.79 8.61Q8.79 7.52 8.41 6.66L8.41 6.66L8.41 6.66Q8.02 5.80 7.25 5.30L7.25 5.30L7.25 5.30Q6.48 4.80 5.39 4.80L5.39 4.80L5.39 4.80Q4.30 4.80 3.53 5.30L3.53 5.30L3.53 5.30Q2.76 5.80 2.37 6.66L2.37 6.66L2.37 6.66Q1.99 7.52 1.99 8.61L1.99 8.61L1.99 8.61Q1.99 9.70 2.37 10.56L2.37 10.56L2.37 10.56Q2.76 11.42 3.53 11.92L3.53 11.92L3.53 11.92Q4.30 12.42 5.39 12.42L5.39 12.42ZM11.90 13.51L11.90 3.71L15.08 3.71L15.08 3.71Q16.67 3.71 17.57 4.45L17.57 4.45L17.57 4.45Q18.47 5.18 18.47 6.69L18.47 6.69L18.47 6.69Q18.47 8.65 16.76 9.45L16.76 9.45L18.96 13.51L17.33 13.51L15.34 9.69L15.27 9.69L13.30 9.69L13.30 13.51L11.90 13.51ZM13.30 8.50L15.06 8.50L15.06 8.50Q16.04 8.50 16.56 8.02L16.56 8.02L16.56 8.02Q17.08 7.55 17.08 6.69L17.08 6.69L17.08 6.69Q17.08 5.84 16.57 5.37L16.57 5.37L16.57 5.37Q16.06 4.90 15.06 4.90L15.06 4.90L13.30 4.90L13.30 8.50ZM25.26 8.18L25.26 8.18Q26.18 8.40 26.67 9.04L26.67 9.04L26.67 9.04Q27.16 9.67 27.16 10.71L27.16 10.71L27.16 10.71Q27.16 12.01 26.33 12.76L26.33 12.76L26.33 12.76Q25.49 13.51 24.04 13.51L24.04 13.51L20.34 13.51L20.34 3.71L23.44 3.71L23.44 3.71Q24.78 3.71 25.52 4.31L25.52 4.31L25.52 4.31Q26.25 4.91 26.25 6.10L26.25 6.10L26.25 6.10Q26.25 6.80 26.00 7.35L26.00 7.35L26.00 7.35Q25.75 7.90 25.26 8.18L25.26 8.18ZM21.67 4.90L21.67 7.78L23.27 7.78L23.27 7.78Q24.05 7.78 24.47 7.47L24.47 7.47L24.47 7.47Q24.88 7.15 24.88 6.34L24.88 6.34L24.88 6.34Q24.88 5.53 24.47 5.21L24.47 5.21L24.47 5.21Q24.05 4.90 23.27 4.90L23.27 4.90L21.67 4.90ZM23.93 12.31L23.93 12.31Q24.75 12.31 25.23 11.89L25.23 11.89L25.23 11.89Q25.70 11.48 25.70 10.67L25.70 10.67L25.70 10.67Q25.70 8.99 23.93 8.99L23.93 8.99L21.67 8.99L21.67 12.31L23.93 12.31ZM28.70 13.51L28.70 3.71L30.03 3.71L30.03 13.51L28.70 13.51ZM32.27 13.51L32.27 3.71L35.90 3.71L35.90 3.71Q37.32 3.71 38.43 4.29L38.43 4.29L38.43 4.29Q39.54 4.87 40.15 5.98L40.15 5.98L40.15 5.98Q40.77 7.10 40.77 8.61L40.77 8.61L40.77 8.61Q40.77 10.12 40.15 11.23L40.15 11.23L40.15 11.23Q39.54 12.35 38.43 12.93L38.43 12.93L38.43 12.93Q37.32 13.51 35.90 13.51L35.90 13.51L32.27 13.51ZM33.60 12.31L35.90 12.31L35.90 12.31Q37.53 12.31 38.42 11.30L38.42 11.30L38.42 11.30Q39.31 10.30 39.31 8.61L39.31 8.61L39.31 8.61Q39.31 6.92 38.42 5.92L38.42 5.92L38.42 5.92Q37.53 4.91 35.90 4.91L35.90 4.91L33.60 4.91L33.60 12.31Z"></path></g><!----><!----></svg>